<svg width="30" height="30" viewBox="0 0 30 30" fill="none" xmlns="http://www.w3.org/2000/svg">
<path fill-rule="evenodd" clip-rule="evenodd" d="M16.2334 3.76636H24.9835C25.671 3.76636 26.2335 4.32886 26.2335 5.01636V11.2664C26.2335 11.9539 25.671 12.5164 24.9835 12.5164H18.7334L14.9834 16.2664V5.01636C14.9834 4.32886 15.5459 3.76636 16.2334 3.76636ZM20.8459 18.7289L24.021 19.0914C25.2835 19.2414 26.2334 20.3039 26.2209 21.5664V23.7289C26.2209 25.1414 25.0459 26.3164 23.6334 26.2289C12.971 25.5664 4.43345 17.0414 3.77095 6.36636C3.68345 4.95386 4.85845 3.77886 6.27095 3.77886H8.43345C9.70845 3.77886 10.7709 4.72886 10.9209 5.99136L11.2834 9.14136C11.3709 9.90386 11.1084 10.6539 10.5709 11.1914L8.25845 13.5039C10.0584 17.0539 12.9585 19.9414 16.4959 21.7414L18.7959 19.4414C19.3334 18.9039 20.0834 18.6414 20.8459 18.7289Z" fill="#011525"/>
</svg>
