<svg xmlns="http://www.w3.org/2000/svg">
<def>
<symbol id="product-icon" viewBox="0 0 96 98" >
<path fill-rule="evenodd" clip-rule="evenodd" d="M67.3366 32.9529L79.5377 45.0399C81.7745 47.2559 81.7916 50.8991 79.5757 53.1359L67.4887 65.337L57.3212 55.2645L63.3356 51.593C65.1925 50.4913 65.1596 47.7994 63.3126 46.6949L57.2641 43.1205L67.3366 32.9529ZM30.8855 29.076L42.9725 16.875C45.1884 14.6381 48.8316 14.621 51.0685 16.837L63.2695 28.924L53.197 39.0915L49.566 33.0769C48.4238 31.2201 45.7521 31.2327 44.6274 33.1001L41.053 39.1485L30.8855 29.076ZM26.8562 33.143L37.0238 43.2155L31.0094 46.887C29.1524 47.9887 29.1853 50.6806 31.0324 51.7851L37.0808 55.3595L27.0083 65.5271L14.8073 53.4401C12.5704 51.2241 12.5533 47.5809 14.7693 45.3441L26.8562 33.143ZM44.779 65.4031L41.148 59.3885L31.0755 69.556L43.2765 81.643C45.5134 83.859 49.1566 83.8419 51.3725 81.605L63.4595 69.404L53.292 59.3315L49.7176 65.3799C48.5929 67.2473 45.9212 67.2599 44.779 65.4031Z" />
</symbol>
</def>
</svg>